<svg width="56" height="56" viewBox="0 0 56 56" fill="none" xmlns="http://www.w3.org/2000/svg">
<path d="M39.2888 53.7347V39.868C39.2888 38.2338 39.2888 37.4167 38.7811 36.909C38.2735 36.4014 37.4564 36.4014 35.8222 36.4014H16.7555C15.1213 36.4014 14.3042 36.4014 13.7965 36.909C13.2888 37.4167 13.2888 38.2338 13.2888 39.868V53.7347" stroke="#F5F5F5" stroke-width="3.46667"/>
<path d="M13.2888 16.1787H27.7333" stroke="#F5F5F5" stroke-width="3.46667" stroke-linecap="round"/>
<path d="M1.7334 6.93438C1.7334 4.48307 1.7334 3.25742 2.49492 2.4959C3.25644 1.73438 4.48209 1.73438 6.9334 1.73438H41.4599C41.8141 1.73438 41.9912 1.73438 42.1505 1.80035C42.3098 1.86632 42.435 1.99156 42.6855 2.24206L53.2257 12.7822C53.4762 13.0327 53.6015 13.158 53.6674 13.3173C53.7334 13.4765 53.7334 13.6536 53.7334 14.0079V48.5344C53.7334 50.9857 53.7334 52.2113 52.9719 52.9729C52.2104 53.7344 50.9847 53.7344 48.5334 53.7344H6.9334C4.4821 53.7344 3.25644 53.7344 2.49492 52.9729C1.7334 52.2113 1.7334 50.9857 1.7334 48.5344V6.93438Z" stroke="#F5F5F5" stroke-width="3.46667"/>
</svg>
